<?xml version="1.0" encoding="UTF-8" standalone="no"?>
<!-- Created with Inkscape (http://www.inkscape.org/) -->

<svg
   width="2048"
   height="2048"
   viewBox="0 0 541.86665 541.86666"
   version="1.1"
   id="svg5"
   inkscape:version="1.2.1 (9c6d41e410, 2022-07-14)"
   sodipodi:docname="WeaponIcons.svg"
   xmlns:inkscape="http://www.inkscape.org/namespaces/inkscape"
   xmlns:sodipodi="http://sodipodi.sourceforge.net/DTD/sodipodi-0.dtd"
   xmlns="http://www.w3.org/2000/svg"
   xmlns:svg="http://www.w3.org/2000/svg">
  <sodipodi:namedview
     id="namedview7"
     pagecolor="#505050"
     bordercolor="#eeeeee"
     borderopacity="1"
     inkscape:showpageshadow="0"
     inkscape:pageopacity="0"
     inkscape:pagecheckerboard="true"
     inkscape:deskcolor="#505050"
     inkscape:document-units="px"
     showgrid="true"
     inkscape:zoom="0.914906"
     inkscape:cx="-77.057096"
     inkscape:cy="632.8519"
     inkscape:window-width="3440"
     inkscape:window-height="1387"
     inkscape:window-x="-8"
     inkscape:window-y="-8"
     inkscape:window-maximized="1"
     inkscape:current-layer="layer1">
    <inkscape:grid
       type="xygrid"
       id="grid9" />
  </sodipodi:namedview>
  <defs
     id="defs2" />
  <g
     inkscape:label="Layer 1"
     inkscape:groupmode="layer"
     id="layer1">
    <path
       id="path615-2"
       style="fill:#ff2a2a;stroke-width:0.608857"
       d="m 161.30426,45.164966 a 7.7885411,14.278964 0 0 0 -0.16418,0.0098 5.1923582,14.278964 0 0 1 0.16418,3.558582 5.1923582,14.278964 0 0 1 -5.19235,14.278991 5.1923582,14.278964 0 0 1 -2.53332,-1.825331 7.7885411,14.278964 0 0 0 7.72567,12.534539 7.7885411,14.278964 0 0 0 7.78853,-14.27899 7.7885411,14.278964 0 0 0 -1.19565,-7.60242 5.1923582,12.49409 0 0 1 -1.40051,0.462954 5.1923582,12.49409 0 0 1 -4.68126,-7.107392 7.7885411,14.278964 0 0 0 -0.51111,-0.03225 z" />
    <rect
       style="fill:#66ff00;stroke-width:0.517139"
       id="rect113"
       width="41.371212"
       height="15.514205"
       x="13.950755"
       y="14.251414" />
    <ellipse
       style="fill:#00ffff;stroke-width:0.517139"
       id="path219"
       cx="34.63636"
       cy="45.279808"
       rx="20.685606"
       ry="7.7571025" />
    <g
       id="g540"
       transform="matrix(1.9545455,0,0,1.9545455,-198.07669,-119.1657)"
       style="fill:#ffcc00">
      <rect
         style="fill:#ffcc00;stroke-width:0.172487"
         id="rect113-9"
         width="17.991632"
         height="3.9687529"
         x="108.47916"
         y="94.056786" />
      <path
         id="path219-1"
         style="fill:#ffcc00;stroke-width:0.24153"
         d="m 120.82637,92.072415 a 8.8194398,3.96875 0 0 0 -4.40971,0.53175 8.8194398,3.96875 0 0 1 4.40971,3.437 8.8194398,3.96875 0 0 1 -4.40971,3.436995 8.8194398,3.96875 0 0 0 4.40971,0.53175 8.8194398,3.96875 0 0 0 8.81945,-3.968745 8.8194398,3.96875 0 0 0 -8.81945,-3.96875 z" />
    </g>
    <path
       id="rect379"
       style="fill:#ffcc00;stroke-width:0.517139"
       d="m 78.593277,55.622625 h 5.1714 l -5.17141,15.514204 H 73.42187 Z"
       sodipodi:nodetypes="ccccc" />
    <path
       id="rect381"
       style="fill:#ffcc00;stroke-width:0.517139"
       d="m 78.593277,34.937025 h 5.1714 L 78.593267,50.45123 H 73.42187 Z"
       sodipodi:nodetypes="ccccc" />
    <path
       id="rect381-7"
       style="fill:#ffcc00;stroke-width:0.517139"
       d="m 86.350377,34.937025 h 5.1714 l -5.1714,15.514205 h -5.1714 z"
       sodipodi:nodetypes="ccccc" />
    <path
       id="rect381-1"
       style="fill:#ffcc00;stroke-width:0.517139"
       d="m 94.107477,34.937025 h 5.1714 l -5.1714,15.514205 h -5.1714 z"
       sodipodi:nodetypes="ccccc" />
    <path
       id="rect381-2"
       style="fill:#ffcc00;stroke-width:0.517139"
       d="m 78.593267,14.251415 h 5.1714 l -5.1714,15.514195 h -5.171399 z"
       sodipodi:nodetypes="ccccc" />
    <path
       id="rect381-7-6"
       style="fill:#ffcc00;stroke-width:0.517139"
       d="m 86.350377,14.251415 h 5.1714 l -5.17141,15.514195 h -5.1714 z"
       sodipodi:nodetypes="ccccc" />
    <path
       id="rect381-1-5"
       style="fill:#ffcc00;stroke-width:0.517139"
       d="m 94.107477,14.251415 h 5.1714 l -5.1714,15.514195 h -5.1714 z"
       sodipodi:nodetypes="ccccc" />
    <path
       id="rect381-2-8"
       style="fill:#ffcc00;stroke-width:0.517139"
       d="m 101.86458,14.251415 h 5.1714 l -5.1714,15.514195 h -5.171403 z"
       sodipodi:nodetypes="ccccc" />
    <path
       id="rect381-7-6-4"
       style="fill:#ffcc00;stroke-width:0.517139"
       d="m 109.62168,14.251415 h 5.1714 l -5.1714,15.514195 h -5.1714 z"
       sodipodi:nodetypes="ccccc" />
    <circle
       style="fill:#ffcc00;stroke-width:0.517139"
       id="path561"
       cx="160.04285"
       cy="25.887066"
       r="9.0499535" />
    <path
       id="path615"
       style="fill:#e9afaf;stroke-width:0.517139"
       d="m 161.33569,53.036917 a 7.7571024,10.342803 0 0 0 -0.16362,0.0081 5.1713992,10.342803 0 0 1 0.16362,2.577616 5.1713992,10.342803 0 0 1 -5.1714,10.342809 5.1713992,10.342803 0 0 1 -2.52308,-1.322152 7.7571024,10.342803 0 0 0 7.69448,9.079255 7.7571024,10.342803 0 0 0 7.7571,-10.34281 7.7571024,10.342803 0 0 0 -1.19083,-5.506736 5.1713992,9.0499504 0 0 1 -1.39486,0.335341 5.1713992,9.0499504 0 0 1 -4.66235,-5.148175 7.7571024,10.342803 0 0 0 -0.50906,-0.02324 z" />
    <path
       sodipodi:type="star"
       style="fill:#2aff2a;stroke-width:0.264583"
       id="path737"
       inkscape:flatsided="false"
       sodipodi:sides="5"
       sodipodi:cx="112.44792"
       sodipodi:cy="134.9375"
       sodipodi:r1="6.614583"
       sodipodi:r2="3.3072915"
       sodipodi:arg1="-1.5707963"
       sodipodi:arg2="-0.9424778"
       inkscape:rounded="0"
       inkscape:randomized="0"
       d="m 112.44792,128.32292 1.94398,3.93892 4.34686,0.63164 -3.14542,3.06603 0.74254,4.3293 -3.88796,-2.04402 -3.88795,2.04402 0.74253,-4.3293 -3.14542,-3.06603 4.34686,-0.63164 z"
       inkscape:transform-center-x="-3.6832062e-06"
       inkscape:transform-center-y="-1.2345595"
       transform="matrix(1.9545455,0,0,1.9545455,-58.448869,-166.74764)" />
    <g
       id="g1012"
       transform="matrix(1.9545455,0,0,1.9545455,-58.448869,-166.74764)">
      <path
         style="fill:#00ffff;stroke-width:0.264583"
         d="m 108.47917,152.13541 5.29166,-5.29166 -1.32291,5.29166 z"
         id="path973" />
      <path
         style="fill:#00ffff;stroke-width:0.264583"
         d="m 115.09374,152.13542 -5.29166,5.29166 1.32291,-5.29166 z"
         id="path973-1" />
    </g>
    <path
       style="fill:#00ffff;stroke-width:0.517139"
       d="m 228.56392,53.036937 -2.5857,5.171395 h 46.54261 v 7.757102 l 28.4427,5.171395 -5.17139,7.757103 h 10.34281 l 12.92849,-15.514205 36.19981,7.757102 -2.58569,-23.271307 2.58569,-5.171395 -82.74242,2.585708 -7.7571,5.171395 z"
       id="path1040" />
  </g>
</svg>
